<?xml version="1.0" encoding="UTF-8"?>
<svg xmlns="http://www.w3.org/2000/svg" style="display:none">
  
  <!-- ACCIONES -->
  <symbol id="icon-plus" viewBox="0 0 16 16">
    <path stroke="currentColor" stroke-width="1.5" fill="none" d="M8 2v12M2 8h12"/>
  </symbol>

  <symbol id="icon-edit" viewBox="0 0 16 16">
    <path stroke="currentColor" stroke-width="1.5" fill="none" d="M2 11.5V14h2.5L13 5.5l-2.5-2.5L2 11.5z"/>
  </symbol>

  <symbol id="icon-delete" viewBox="0 0 16 16">
    <path stroke="currentColor" stroke-width="1.5" fill="none" d="M3 4h10M5 4V2h6v2M6 7v5M10 7v5M4 4h8v10H4z"/>
  </symbol>

  <symbol id="icon-save" viewBox="0 0 16 16">
    <path stroke="currentColor" stroke-width="1.5" fill="none" d="M2 2h12v12H2z"/>
    <path stroke="currentColor" stroke-width="1.5" fill="none" d="M4 2v4h8V2z"/>
    <rect x="5" y="9" width="6" height="3" stroke="currentColor" stroke-width="1.5" fill="none"/>
  </symbol>

  <!-- TIEMPO -->
  <symbol id="icon-clock" viewBox="0 0 16 16">
    <circle cx="8" cy="8" r="6" stroke="currentColor" stroke-width="1.5" fill="none"/>
    <line x1="8" y1="8" x2="8" y2="4" stroke="currentColor" stroke-width="1.5"/>
    <line x1="8" y1="8" x2="10.5" y2="9.5" stroke="currentColor" stroke-width="1.5"/>
  </symbol>

  <symbol id="icon-calendar" viewBox="0 0 16 16">
    <rect x="2" y="3" width="12" height="11" stroke="currentColor" stroke-width="1.5" fill="none"/>
    <line x1="2" y1="6" x2="14" y2="6" stroke="currentColor" stroke-width="1.5"/>
    <line x1="5" y1="1" x2="5" y2="4" stroke="currentColor" stroke-width="1.5"/>
    <line x1="11" y1="1" x2="11" y2="4" stroke="currentColor" stroke-width="1.5"/>
  </symbol>

  <symbol id="icon-timer" viewBox="0 0 16 16">
    <circle cx="8" cy="9" r="5" stroke="currentColor" stroke-width="1.5" fill="none"/>
    <line x1="8" y1="9" x2="8" y2="6" stroke="currentColor" stroke-width="1.5"/>
    <line x1="6" y1="3" x2="10" y2="3" stroke="currentColor" stroke-width="1.5"/>
    <line x1="8" y1="3" x2="8" y2="4" stroke="currentColor" stroke-width="1.5"/>
  </symbol>

  <!-- LOCALIZACIÓN Y CLIMA -->
  <symbol id="icon-map" viewBox="0 0 16 16">
    <path stroke="currentColor" stroke-width="1.5" fill="none" d="M2 2l4 1.5 4-1.5 4 1.5v10l-4-1.5-4 1.5-4-1.5z"/>
    <line x1="6" y1="3.5" x2="6" y2="12.5" stroke="currentColor" stroke-width="1.5"/>
    <line x1="10" y1="2.5" x2="10" y2="11.5" stroke="currentColor" stroke-width="1.5"/>
  </symbol>

  <symbol id="icon-location" viewBox="0 0 16 16">
    <path stroke="currentColor" stroke-width="1.5" fill="none" d="M8 2a4 4 0 00-4 4c0 2.5 4 8 4 8s4-5.5 4-8a4 4 0 00-4-4z"/>
    <circle cx="8" cy="6" r="1.5" stroke="currentColor" stroke-width="1.5" fill="none"/>
  </symbol>

  <symbol id="icon-weather" viewBox="0 0 16 16">
    <circle cx="5" cy="6" r="2.5" stroke="currentColor" stroke-width="1.5" fill="none"/>
    <path stroke="currentColor" stroke-width="1.5" fill="none" d="M7 6h4.5a2 2 0 110 4H5a2 2 0 110-4"/>
  </symbol>

  <!-- MULTIMEDIA -->
  <symbol id="icon-audio" viewBox="0 0 16 16">
    <rect x="2" y="6" width="3" height="4" stroke="currentColor" stroke-width="1.5" fill="none"/>
    <line x1="5" y1="8" x2="10" y2="8" stroke="currentColor" stroke-width="1.5"/>
    <path stroke="currentColor" stroke-width="1.5" fill="none" d="M11 6a3 3 0 010 4"/>
    <path stroke="currentColor" stroke-width="1.5" fill="none" d="M12.5 5a5 5 0 010 6"/>
  </symbol>

  <symbol id="icon-image" viewBox="0 0 16 16">
    <rect x="2" y="2" width="12" height="12" stroke="currentColor" stroke-width="1.5" fill="none"/>
    <circle cx="5.5" cy="5.5" r="1.5" stroke="currentColor" stroke-width="1.5" fill="none"/>
    <path stroke="currentColor" stroke-width="1.5" fill="none" d="M2 11l3-3 2 2 3-3 4 4"/>
  </symbol>

  <symbol id="icon-camera" viewBox="0 0 16 16">
    <rect x="2" y="4" width="12" height="9" rx="1" stroke="currentColor" stroke-width="1.5" fill="none"/>
    <circle cx="8" cy="8.5" r="2.5" stroke="currentColor" stroke-width="1.5" fill="none"/>
    <path stroke="currentColor" stroke-width="1.5" fill="none" d="M5 4L6 2h4l1 2"/>
  </symbol>

  <!-- EMOCIONES -->
  <symbol id="icon-mood-happy" viewBox="0 0 16 16">
    <circle cx="8" cy="8" r="6" stroke="currentColor" stroke-width="1.5" fill="none"/>
    <circle cx="6" cy="7" r="0.8" fill="currentColor"/>
    <circle cx="10" cy="7" r="0.8" fill="currentColor"/>
    <path stroke="currentColor" stroke-width="1.5" fill="none" d="M5 10a3 3 0 006 0"/>
  </symbol>

  <symbol id="icon-mood-sad" viewBox="0 0 16 16">
    <circle cx="8" cy="8" r="6" stroke="currentColor" stroke-width="1.5" fill="none"/>
    <circle cx="6" cy="7" r="0.8" fill="currentColor"/>
    <circle cx="10" cy="7" r="0.8" fill="currentColor"/>
    <path stroke="currentColor" stroke-width="1.5" fill="none" d="M5 11a3 3 0 016 0"/>
  </symbol>

  <symbol id="icon-mood-neutral" viewBox="0 0 16 16">
    <circle cx="8" cy="8" r="6" stroke="currentColor" stroke-width="1.5" fill="none"/>
    <circle cx="6" cy="7" r="0.8" fill="currentColor"/>
    <circle cx="10" cy="7" r="0.8" fill="currentColor"/>
    <line x1="5" y1="10" x2="11" y2="10" stroke="currentColor" stroke-width="1.5"/>
  </symbol>

  <!-- DINERO -->
  <symbol id="icon-money" viewBox="0 0 16 16">
    <circle cx="8" cy="8" r="6" stroke="currentColor" stroke-width="1.5" fill="none"/>
    <path stroke="currentColor" stroke-width="1.5" fill="none" d="M8 5v1m0 4v1m1-5a1.5 1.5 0 00-2 0m2 4a1.5 1.5 0 01-2 0"/>
  </symbol>

  <symbol id="icon-wallet" viewBox="0 0 16 16">
    <rect x="2" y="4" width="12" height="9" rx="1" stroke="currentColor" stroke-width="1.5" fill="none"/>
    <path stroke="currentColor" stroke-width="1.5" fill="none" d="M2 4V3a1 1 0 011-1h9a1 1 0 011 1v1"/>
    <circle cx="11" cy="8.5" r="1" fill="currentColor"/>
  </symbol>

  <!-- ACTIVIDADES -->
  <symbol id="icon-work" viewBox="0 0 16 16">
    <rect x="3" y="5" width="10" height="8" stroke="currentColor" stroke-width="1.5" fill="none"/>
    <path stroke="currentColor" stroke-width="1.5" fill="none" d="M6 5V4a2 2 0 014 0v1"/>
    <line x1="8" y1="8" x2="8" y2="10" stroke="currentColor" stroke-width="1.5"/>
  </symbol>

  <symbol id="icon-food" viewBox="0 0 16 16">
    <path stroke="currentColor" stroke-width="1.5" fill="none" d="M4 3v4a2 2 0 004 0V3M6 7v6"/>
    <path stroke="currentColor" stroke-width="1.5" fill="none" d="M10 3v3a1 1 0 002 0V3m0 3v7"/>
  </symbol>

  <symbol id="icon-exercise" viewBox="0 0 16 16">
    <circle cx="8" cy="3" r="1.5" stroke="currentColor" stroke-width="1.5" fill="none"/>
    <path stroke="currentColor" stroke-width="1.5" fill="none" d="M8 4.5v4M8 8.5L5 12M8 8.5l3 3.5M6 6l2 2.5 2-2.5"/>
  </symbol>

  <symbol id="icon-sleep" viewBox="0 0 16 16">
    <path stroke="currentColor" stroke-width="1.5" fill="none" d="M9 3a6 6 0 00-6 6 6 6 0 008 5.66A5 5 0 019 3z"/>
  </symbol>

  <!-- NAVEGACIÓN -->
  <symbol id="icon-chevron-down" viewBox="0 0 16 16">
    <path stroke="currentColor" stroke-width="2" fill="none" d="M4 6l4 4 4-4"/>
  </symbol>

  <symbol id="icon-chevron-up" viewBox="0 0 16 16">
    <path stroke="currentColor" stroke-width="2" fill="none" d="M4 10l4-4 4 4"/>
  </symbol>

  <symbol id="icon-chevron-right" viewBox="0 0 16 16">
    <path stroke="currentColor" stroke-width="2" fill="none" d="M6 4l4 4-4 4"/>
  </symbol>

  <!-- DATOS -->
  <symbol id="icon-stats" viewBox="0 0 16 16">
    <rect x="2" y="9" width="3" height="5" stroke="currentColor" stroke-width="1.5" fill="none"/>
    <rect x="6.5" y="6" width="3" height="8" stroke="currentColor" stroke-width="1.5" fill="none"/>
    <rect x="11" y="2" width="3" height="12" stroke="currentColor" stroke-width="1.5" fill="none"/>
  </symbol>

  <symbol id="icon-export" viewBox="0 0 16 16">
    <path stroke="currentColor" stroke-width="1.5" fill="none" d="M8 2v8M5 5l3-3 3 3"/>
    <path stroke="currentColor" stroke-width="1.5" fill="none" d="M3 11v2a1 1 0 001 1h8a1 1 0 001-1v-2"/>
  </symbol>

  <!-- CONFIGURACIÓN -->
  <symbol id="icon-settings" viewBox="0 0 16 16">
    <circle cx="8" cy="8" r="2" stroke="currentColor" stroke-width="1.5" fill="none"/>
    <path stroke="currentColor" stroke-width="1.5" fill="none" d="M8 2l1 2 2 0 1 1 0 2 2 1v2l-2 1 0 2-1 1-2 0-1 2h-2l-1-2-2 0-1-1 0-2-2-1V6l2-1 0-2 1-1 2 0z"/>
  </symbol>

  <symbol id="icon-sync" viewBox="0 0 16 16">
    <path stroke="currentColor" stroke-width="1.5" fill="none" d="M2 8a6 6 0 0110.5-4"/>
    <path stroke="currentColor" stroke-width="1.5" fill="none" d="M14 8a6 6 0 01-10.5 4"/>
    <path stroke="currentColor" stroke-width="1.5" fill="none" d="M12.5 2v2.5H10M3.5 14v-2.5H6"/>
  </symbol>

  <!-- SOCIAL -->
  <symbol id="icon-user" viewBox="0 0 16 16">
    <circle cx="8" cy="5" r="2.5" stroke="currentColor" stroke-width="1.5" fill="none"/>
    <path stroke="currentColor" stroke-width="1.5" fill="none" d="M3 13a5 5 0 0110 0"/>
  </symbol>

  <symbol id="icon-note" viewBox="0 0 16 16">
    <rect x="3" y="2" width="10" height="12" stroke="currentColor" stroke-width="1.5" fill="none"/>
    <line x1="5" y1="5" x2="11" y2="5" stroke="currentColor" stroke-width="1.5"/>
    <line x1="5" y1="8" x2="11" y2="8" stroke="currentColor" stroke-width="1.5"/>
    <line x1="5" y1="11" x2="9" y2="11" stroke="currentColor" stroke-width="1.5"/>
  </symbol>

</svg>
